# This file uses centimeters as units for non-parametric coordinates.

mtllib Book.mtl
g default
v -2.225753 0.922348 1.254147
v 2.225753 0.922348 1.254147
v -2.182470 0.963391 1.205060
v 2.182470 0.963391 1.205060
v -2.182470 0.963389 -1.970814
v 2.182470 0.963389 -1.970814
v -2.225753 0.922347 -1.921727
v 2.225753 0.922347 -1.921727
v 0.152758 -0.000365 1.256489
v -0.152758 -0.000365 1.256489
v -0.152758 0.064486 1.224223
v 0.152758 0.064486 1.224223
v -0.152758 0.064484 -1.951649
v 0.152758 0.064484 -1.951649
v -0.152758 -0.000366 -1.919383
v 0.152758 -0.000366 -1.919383
vt 0.625000 0.000000
vt 0.875000 0.000000
vt 0.875000 0.250000
vt 0.125000 0.000000
vt 0.125000 0.250000
vt 0.508579 1.000000
vt 0.491399 0.000164
vt 0.500000 0.250000
vt 0.375000 0.000000
vt 0.491251 0.250000
vt 0.508579 -0.000000
vt 0.625000 0.249999
vt 0.375000 0.250000
vt 0.491246 0.500000
vt 0.508749 0.250000
vt 0.625000 0.500000
vt 0.375000 0.500000
vt 0.491421 0.750000
vt 0.508742 0.500022
vt 0.625000 0.750000
vt 0.375000 0.750000
vt 0.491421 1.000000
vt 0.375000 1.000000
vt 0.508579 0.750000
vt 0.625000 1.000000
vn 0.688075 0.725639 -0.000000
vn 0.688075 0.725639 -0.000000
vn 0.688075 0.725639 -0.000000
vn 0.688075 0.725639 -0.000000
vn -0.688077 0.725638 -0.000000
vn -0.688077 0.725637 -0.000000
vn -0.688077 0.725637 -0.000000
vn -0.688077 0.725638 -0.000000
vn 0.000000 -1.000000 0.000001
vn 0.000000 -1.000000 0.000001
vn 0.000000 -1.000000 0.000001
vn 0.000000 -1.000000 0.000001
vn 0.000000 0.445452 0.895306
vn 0.000000 0.445452 0.895306
vn 0.000000 0.445452 0.895306
vn 0.000000 0.445452 0.895306
vn 0.000000 1.000000 -0.000001
vn 0.000000 1.000000 -0.000001
vn 0.000000 1.000000 -0.000001
vn 0.000000 1.000000 -0.000001
vn 0.000000 -0.445460 -0.895302
vn 0.000000 -0.445460 -0.895302
vn 0.000000 -0.445460 -0.895302
vn 0.000000 -0.445460 -0.895302
vn 0.231647 0.531341 0.814872
vn 0.231647 0.531341 0.814872
vn 0.231647 0.531342 0.814872
vn 0.231647 0.531341 0.814872
vn -0.231647 0.531342 0.814872
vn -0.231647 0.531342 0.814872
vn -0.231647 0.531342 0.814872
vn -0.231647 0.531342 0.814872
vn 0.404938 0.914344 -0.000001
vn 0.404938 0.914344 -0.000001
vn 0.404938 0.914344 -0.000001
vn 0.404938 0.914344 -0.000001
vn -0.404938 0.914344 -0.000001
vn -0.404938 0.914344 -0.000001
vn -0.404938 0.914344 -0.000001
vn -0.404938 0.914344 -0.000001
vn -0.231648 -0.531347 -0.814868
vn -0.231648 -0.531347 -0.814868
vn -0.231648 -0.531347 -0.814868
vn -0.231648 -0.531347 -0.814868
vn 0.231648 -0.531347 -0.814868
vn 0.231648 -0.531346 -0.814868
vn 0.231648 -0.531346 -0.814868
vn 0.231648 -0.531347 -0.814868
vn -0.406647 -0.913585 0.000000
vn -0.406647 -0.913585 0.000000
vn -0.406647 -0.913585 0.000000
vn -0.406647 -0.913585 0.000000
vn 0.406647 -0.913585 0.000000
vn 0.406647 -0.913585 0.000000
vn 0.406647 -0.913585 0.000000
vn 0.406647 -0.913585 0.000000
s off
g pCube5 TheBookOfAllKnowledge
usemtl initialShadingGroup
f 2/1/1 8/2/2 6/3/3 4/12/4
f 7/4/5 1/9/6 3/13/7 5/5/8
f 9/6/9 10/22/10 15/18/11 16/24/12
f 10/7/13 9/8/14 12/15/15 11/10/16
f 11/10/17 12/15/18 14/19/19 13/14/20
f 13/14/21 14/19/22 16/24/23 15/18/24
f 1/9/25 10/7/26 11/10/27 3/13/28
f 9/11/29 2/1/30 4/12/31 12/15/32
f 3/13/33 11/10/34 13/14/35 5/17/36
f 12/15/37 4/12/38 6/16/39 14/19/40
f 5/17/41 13/14/42 15/18/43 7/21/44
f 14/19/45 6/16/46 8/20/47 16/24/48
f 7/21/49 15/18/50 10/22/51 1/23/52
f 16/24/53 8/20/54 2/25/55 9/6/56
g default
v 0.176519 0.154646 1.169590
v 2.031711 1.144743 1.148365
v 0.154826 0.078295 -1.907004
v 2.031711 1.059401 -1.947091
v 0.168293 0.170208 1.169210
v 2.023485 1.160305 1.147986
v 2.023485 1.074963 -1.947470
v 0.146601 0.093857 -1.907383
vt 0.000000 0.000000
vt 1.000000 0.000000
vt 0.000000 1.000000
vt 1.000000 1.000000
vt 0.000000 0.000000
vt 1.000000 0.000000
vt 1.000000 1.000000
vt 0.000000 1.000000
vt 0.000000 0.000000
vt 1.000000 0.000000
vt 1.000000 1.000000
vt 0.000000 1.000000
vn -0.467204 0.883888 -0.021514
vn -0.467204 0.883888 -0.021514
vn -0.467204 0.883888 -0.021514
vn -0.467204 0.883888 -0.021514
vn 0.467204 -0.883888 0.021514
vn 0.467204 -0.883888 0.021514
vn 0.467204 -0.883888 0.021514
vn 0.467204 -0.883888 0.021514
vn -0.001216 0.023710 0.999718
vn -0.001216 0.023710 0.999718
vn -0.001216 0.023710 0.999718
vn -0.001216 0.023710 0.999718
vn 0.884146 0.467033 -0.012876
vn 0.884146 0.467033 -0.012876
vn 0.884146 0.467033 -0.012876
vn 0.884146 0.467033 -0.012876
vn -0.006767 -0.027896 -0.999588
vn -0.006767 -0.027896 -0.999588
vn -0.006767 -0.027896 -0.999588
vn -0.006767 -0.027896 -0.999588
vn -0.884132 -0.466897 0.017821
vn -0.884132 -0.466897 0.017821
vn -0.884132 -0.466897 0.017821
vn -0.884132 -0.466897 0.017821
s off
g TheBookOfAllKnowledge pPlane1
usemtl initialShadingGroup
f 21/34/57 22/35/58 23/36/59 24/37/60
f 17/30/61 19/33/62 20/32/63 18/31/64
f 17/26/65 18/27/66 22/35/67 21/34/68
f 18/27/69 20/29/70 23/36/71 22/35/72
f 20/29/73 19/28/74 24/37/75 23/36/76
f 19/28/77 17/26/78 21/34/79 24/37/80
g default
v -0.171935 0.178311 1.169589
v -2.095835 1.027214 1.148365
v -0.098469 0.208354 -1.907004
v -2.028679 1.079877 -1.947092
v -0.179105 0.162234 1.169210
v -2.103005 1.011138 1.147986
v -2.035848 1.063801 -1.947471
v -0.105639 0.192278 -1.907383
vt 0.000000 0.000000
vt 1.000000 0.000000
vt 0.000000 1.000000
vt 1.000000 1.000000
vt 0.000000 0.000000
vt 1.000000 0.000000
vt 1.000000 1.000000
vt 0.000000 1.000000
vt 0.000000 0.000000
vt 1.000000 0.000000
vt 1.000000 1.000000
vt 0.000000 1.000000
vn -0.407240 -0.913068 -0.021514
vn -0.407240 -0.913068 -0.021514
vn -0.407240 -0.913068 -0.021514
vn -0.407240 -0.913068 -0.021514
vn 0.407240 0.913068 0.021514
vn 0.407240 0.913068 0.021514
vn 0.407240 0.913068 0.021514
vn 0.407240 0.913068 0.021514
vn -0.017896 -0.015563 0.999719
vn -0.017896 -0.015563 0.999719
vn -0.017896 -0.015563 0.999719
vn -0.017896 -0.015563 0.999719
vn -0.913103 0.407525 -0.012877
vn -0.913103 0.407525 -0.012877
vn -0.913103 0.407525 -0.012877
vn -0.913103 0.407525 -0.012877
vn 0.026134 0.011901 -0.999588
vn 0.026134 0.011901 -0.999588
vn 0.026134 0.011901 -0.999588
vn 0.026134 0.011901 -0.999588
vn 0.912983 -0.407608 0.017821
vn 0.912983 -0.407608 0.017821
vn 0.912983 -0.407608 0.017821
vn 0.912983 -0.407608 0.017821
s off
g TheBookOfAllKnowledge pPlane2
usemtl initialShadingGroup
f 29/46/81 30/47/82 31/48/83 32/49/84
f 25/42/85 27/45/86 28/44/87 26/43/88
f 25/38/89 26/39/90 30/47/91 29/46/92
f 26/39/93 28/41/94 31/48/95 30/47/96
f 28/41/97 27/40/98 32/49/99 31/48/100
f 27/40/101 25/38/102 29/46/103 32/49/104
g default
v -0.035493 0.113394 1.122688
v -1.896189 1.381548 1.148365
v 0.042122 0.130004 -1.953906
v -1.820794 1.421535 -1.947091
v -0.045466 0.098890 1.122307
v -1.906162 1.367044 1.147985
v -1.830768 1.407031 -1.947472
v 0.032149 0.115500 -1.954286
vt 0.000000 0.000000
vt 1.000000 0.000000
vt 0.000000 1.000000
vt 1.000000 1.000000
vt 0.000000 0.000000
vt 1.000000 0.000000
vt 1.000000 1.000000
vt 0.000000 1.000000
vt 0.000000 0.000000
vt 1.000000 0.000000
vt 1.000000 1.000000
vt 0.000000 1.000000
vn -0.566480 -0.823792 -0.021597
vn -0.566480 -0.823792 -0.021597
vn -0.566480 -0.823792 -0.021597
vn -0.566480 -0.823792 -0.021597
vn 0.566480 0.823792 0.021598
vn 0.566480 0.823792 0.021598
vn 0.566480 0.823792 0.021598
vn 0.566480 0.823792 0.021598
vn -0.002778 -0.024318 0.999700
vn -0.002778 -0.024318 0.999700
vn -0.002778 -0.024318 0.999700
vn -0.002778 -0.024318 0.999700
vn -0.823761 0.566794 -0.012742
vn -0.823761 0.566794 -0.012742
vn -0.823761 0.566794 -0.012742
vn -0.823761 0.566794 -0.012742
vn 0.009837 0.019465 -0.999762
vn 0.009837 0.019465 -0.999762
vn 0.009837 0.019465 -0.999762
vn 0.009837 0.019465 -0.999762
vn 0.823638 -0.566839 0.017718
vn 0.823638 -0.566839 0.017718
vn 0.823638 -0.566839 0.017718
vn 0.823638 -0.566839 0.017718
s off
g TheBookOfAllKnowledge pPlane3
usemtl initialShadingGroup
f 37/58/105 38/59/106 39/60/107 40/61/108
f 33/54/109 35/57/110 36/56/111 34/55/112
f 33/50/113 34/51/114 38/59/115 37/58/116
f 34/51/117 36/53/118 39/60/119 38/59/120
f 36/53/121 35/52/122 40/61/123 39/60/124
f 35/52/125 33/50/126 37/58/127 40/61/128
g default
v -0.162347 0.193380 1.169590
v -2.000118 1.215449 1.148365
v -0.086430 0.216546 -1.907004
v -1.928407 1.261719 -1.947091
v -0.170963 0.178031 1.169210
v -2.008734 1.200101 1.147986
v -1.937024 1.246370 -1.947470
v -0.095047 0.201197 -1.907383
vt 0.000000 0.000000
vt 1.000000 0.000000
vt 0.000000 1.000000
vt 1.000000 1.000000
vt 0.000000 0.000000
vt 1.000000 0.000000
vt 1.000000 1.000000
vt 0.000000 1.000000
vt 0.000000 0.000000
vt 1.000000 0.000000
vt 1.000000 1.000000
vt 0.000000 1.000000
vn -0.489404 -0.871792 -0.021513
vn -0.489404 -0.871792 -0.021513
vn -0.489405 -0.871792 -0.021513
vn -0.489405 -0.871792 -0.021513
vn 0.489405 0.871792 0.021514
vn 0.489405 0.871792 0.021514
vn 0.489404 0.871792 0.021514
vn 0.489404 0.871792 0.021514
vn -0.019264 -0.013877 0.999718
vn -0.019264 -0.013877 0.999718
vn -0.019264 -0.013877 0.999718
vn -0.019264 -0.013877 0.999718
vn -0.871788 0.489714 -0.012876
vn -0.871788 0.489714 -0.012876
vn -0.871788 0.489714 -0.012876
vn -0.871788 0.489714 -0.012876
vn 0.027109 0.009438 -0.999588
vn 0.027109 0.009438 -0.999588
vn 0.027109 0.009438 -0.999588
vn 0.027109 0.009438 -0.999588
vn 0.871665 -0.489778 0.017821
vn 0.871665 -0.489778 0.017821
vn 0.871665 -0.489778 0.017821
vn 0.871665 -0.489778 0.017821
s off
g TheBookOfAllKnowledge pPlane4
usemtl initialShadingGroup
f 45/70/129 46/71/130 47/72/131 48/73/132
f 41/66/133 43/69/134 44/68/135 42/67/136
f 41/62/137 42/63/138 46/71/139 45/70/140
f 42/63/141 44/65/142 47/72/143 46/71/144
f 44/65/145 43/64/146 48/73/147 47/72/148
f 43/64/149 41/62/150 45/70/151 48/73/152
g default
v 0.169704 0.169606 1.169589
v 1.934513 1.313056 1.148365
v 0.154547 0.091694 -1.907004
v 1.941731 1.228019 -1.947092
v 0.160192 0.184417 1.169210
v 1.925001 1.327867 1.147987
v 1.932219 1.242830 -1.947470
v 0.145034 0.106505 -1.907383
vt 0.000000 0.000000
vt 1.000000 0.000000
vt 0.000000 1.000000
vt 1.000000 1.000000
vt 0.000000 0.000000
vt 1.000000 0.000000
vt 1.000000 1.000000
vt 0.000000 1.000000
vt 0.000000 0.000000
vt 1.000000 0.000000
vt 1.000000 1.000000
vt 0.000000 1.000000
vn -0.540284 0.841208 -0.021514
vn -0.540284 0.841208 -0.021514
vn -0.540284 0.841208 -0.021514
vn -0.540284 0.841208 -0.021514
vn 0.540284 -0.841208 0.021514
vn 0.540284 -0.841208 0.021514
vn 0.540284 -0.841208 0.021514
vn 0.540284 -0.841208 0.021514
vn -0.003188 0.023476 0.999719
vn -0.003188 0.023476 0.999719
vn -0.003188 0.023476 0.999719
vn -0.003188 0.023476 0.999719
vn 0.841483 0.540131 -0.012876
vn 0.841483 0.540131 -0.012876
vn 0.841483 0.540131 -0.012876
vn 0.841483 0.540131 -0.012876
vn -0.004392 -0.028357 -0.999588
vn -0.004392 -0.028357 -0.999588
vn -0.004392 -0.028357 -0.999588
vn -0.004392 -0.028357 -0.999588
vn -0.841479 -0.539996 0.017821
vn -0.841479 -0.539996 0.017821
vn -0.841479 -0.539996 0.017821
vn -0.841479 -0.539996 0.017821
s off
g TheBookOfAllKnowledge pPlane5
usemtl initialShadingGroup
f 53/82/153 54/83/154 55/84/155 56/85/156
f 49/78/157 51/81/158 52/80/159 50/79/160
f 49/74/161 50/75/162 54/83/163 53/82/164
f 50/75/165 52/77/166 55/84/167 54/83/168
f 52/77/169 51/76/170 56/85/171 55/84/172
f 51/76/173 49/74/174 53/82/175 56/85/176
g default
v 0.021365 0.178112 1.169589
v 1.870862 1.407935 1.148365
v 0.010102 0.099542 -1.907004
v 1.882301 1.323362 -1.947092
v 0.011672 0.192804 1.169200
v 1.861168 1.422627 1.147976
v 1.872608 1.338054 -1.947481
v 0.000409 0.114235 -1.907394
vt 0.000000 0.000000
vt 1.000000 0.000000
vt 0.000000 1.000000
vt 1.000000 1.000000
vt 0.000000 0.000000
vt 1.000000 0.000000
vt 1.000000 1.000000
vt 0.000000 1.000000
vt 0.000000 0.000000
vt 1.000000 0.000000
vt 1.000000 1.000000
vt 0.000000 1.000000
vn -0.550543 0.834515 -0.022074
vn -0.550543 0.834515 -0.022074
vn -0.550543 0.834515 -0.022074
vn -0.550543 0.834515 -0.022074
vn 0.550543 -0.834515 0.022074
vn 0.550543 -0.834515 0.022074
vn 0.550543 -0.834515 0.022074
vn 0.550543 -0.834515 0.022074
vn -0.004263 0.023663 0.999711
vn -0.004263 0.023663 0.999711
vn -0.004263 0.023663 0.999711
vn -0.004263 0.023663 0.999711
vn 0.834796 0.550429 -0.011954
vn 0.834796 0.550429 -0.011954
vn 0.834796 0.550429 -0.011954
vn 0.834796 0.550429 -0.011954
vn -0.002864 -0.028362 -0.999594
vn -0.002864 -0.028362 -0.999594
vn -0.002864 -0.028362 -0.999594
vn -0.002864 -0.028362 -0.999594
vn -0.834798 -0.550290 0.017109
vn -0.834798 -0.550290 0.017109
vn -0.834798 -0.550290 0.017109
vn -0.834798 -0.550290 0.017109
s off
g TheBookOfAllKnowledge pPlane6
usemtl initialShadingGroup
f 61/94/177 62/95/178 63/96/179 64/97/180
f 57/90/181 59/93/182 60/92/183 58/91/184
f 57/86/185 58/87/186 62/95/187 61/94/188
f 58/87/189 60/89/190 63/96/191 62/95/192
f 60/89/193 59/88/194 64/97/195 63/96/196
f 59/88/197 57/86/198 61/94/199 64/97/200
